<svg width="42" height="42" viewBox="0 0 42 42" fill="none" xmlns="http://www.w3.org/2000/svg">
<path d="M3.01228 38.9879C3.13418 39.1099 3.27893 39.2068 3.43826 39.2728C3.5976 39.3389 3.76839 39.3729 3.94087 39.3729C4.11336 39.3729 4.28415 39.3389 4.44348 39.2728C4.60282 39.2068 4.74757 39.1099 4.86947 38.9879L21.0001 22.8573L37.1373 38.9879C37.3836 39.2342 37.7176 39.3726 38.0659 39.3726C38.4142 39.3726 38.7482 39.2342 38.9945 38.9879C39.2407 38.7416 39.3791 38.4076 39.3791 38.0593C39.3791 37.711 39.2407 37.377 38.9945 37.1307L22.8573 21.0001L38.9879 4.86292C39.2342 4.61664 39.3725 4.28261 39.3725 3.93432C39.3725 3.58603 39.2342 3.25201 38.9879 3.00573C38.7416 2.75945 38.4076 2.62109 38.0593 2.62109C37.711 2.62109 37.377 2.75945 37.1307 3.00573L21.0001 19.1429L4.86291 3.01229C4.61182 2.79727 4.28885 2.68491 3.95852 2.69767C3.6282 2.71043 3.31485 2.84737 3.0811 3.08112C2.84735 3.31486 2.71042 3.62821 2.69766 3.95853C2.6849 4.28886 2.79726 4.61183 3.01228 4.86292L19.1429 21.0001L3.01228 37.1373C2.76783 37.3832 2.63062 37.7159 2.63062 38.0626C2.63062 38.4093 2.76783 38.742 3.01228 38.9879Z" fill="#99B56F"/>
</svg>
